<?xml version="1.0" encoding="UTF-8"?>
<!DOCTYPE svg PUBLIC "-//W3C//DTD SVG 1.1//EN" "http://www.w3.org/Graphics/SVG/1.1/DTD/svg11.dtd">
<!-- Creator: CorelDRAW 2020 (64-Bit) -->
<svg xmlns="http://www.w3.org/2000/svg" xml:space="preserve" width="1.29129in" height="1.20498in" version="1.1" style="shape-rendering:geometricPrecision; text-rendering:geometricPrecision; image-rendering:optimizeQuality; fill-rule:evenodd; clip-rule:evenodd"
viewBox="0 0 360.85 336.74"
 xmlns:xlink="http://www.w3.org/1999/xlink"
 xmlns:xodm="http://www.corel.com/coreldraw/odm/2003">
 <defs>
  <style type="text/css">
   <![CDATA[
    .fil0 {fill:#CCFF66}
    .fil1 {fill:white}
   ]]>
  </style>
 </defs>
 <g id="Layer_x0020_1">
  <metadata id="CorelCorpID_0Corel-Layer"/>
  <path class="fil0" d="M12.14 152.43l0 184.3 65.05 -0.03 0.06 -148.66c-1.44,-4.86 -6.37,-11.76 -9.33,-16.64 -4.09,-6.75 -6.74,-10.11 -12.25,-13.99 -14.7,-10.35 -25.1,-7.79 -43.52,-4.98z"/>
  <path class="fil1" d="M12.14 152.43c18.42,-2.82 28.83,-5.37 43.52,4.98 5.51,3.88 8.16,7.24 12.25,13.99 2.96,4.88 7.9,11.79 9.33,16.64 4.67,3.84 36.54,62.58 41.83,73.01l36.18 71.54c5.68,11.75 10.02,-5.53 17.62,-22.01 4.36,-9.45 8.05,-18.45 12.26,-27.54 21.45,-46.27 39.42,-94.25 58.47,-141.57 3.53,-8.77 7.19,-20.75 11.31,-28.86l0.46 223.92 105.05 0.21 0 -259.41c0,-24.83 4.3,-60.84 -14.2,-72.59 -18.48,-11.73 -51.02,1.07 -67.3,8.95 -40.16,19.43 -49.94,63.52 -67.2,105.61 -4.28,10.43 -8.46,20.81 -12.66,31.05 -2.85,6.93 -9.68,25.3 -13.18,30.46l-30.56 -55.06c-9.33,-16.48 -21.6,-42.35 -41.13,-46.29 -25.89,-5.22 -75.13,17.7 -92.04,38.67 -7.6,9.42 -10.99,19.16 -9.99,34.31z"/>
  <path class="fil0" d="M32.16 2.34c-19.44,4.53 -37.17,25.46 -30.87,51.22 13.04,53.27 95.17,35.47 82.37,-20.38 -4.59,-20.04 -25.23,-36.96 -51.5,-30.84z"/>
 </g>
</svg>
